<svg xmlns="http://www.w3.org/2000/svg" width="13.07" height="12.385" viewBox="0 0 13.07 12.385"><defs><style>.a{fill:#d18e8e;stroke:#d18e8e;stroke-width:0.25px;}</style></defs><g transform="translate(0.125 -8.476)"><g transform="translate(0 8.601)"><g transform="translate(0)"><path class="a" d="M132.812,81.5a.261.261,0,0,0-.175-.111,3.461,3.461,0,0,1-3.512-3.783.207.207,0,1,0-.413,0,3.458,3.458,0,0,1-3.5,3.783.18.18,0,0,0-.127.048c-.032.016-.048.048-.064.064a.236.236,0,0,0,0,.207.221.221,0,0,0,.191.111h.016a3.451,3.451,0,0,1,3.5,3.783.207.207,0,0,0,.413,0,3.462,3.462,0,0,1,3.5-3.783.242.242,0,0,0,.191-.111A.2.2,0,0,0,132.812,81.5Zm-3.894,2.543a3.628,3.628,0,0,0-2.479-2.448,3.628,3.628,0,0,0,2.479-2.448A3.628,3.628,0,0,0,131.4,81.6,3.628,3.628,0,0,0,128.918,84.045Z" transform="translate(-120.033 -74.667)"/><path class="a" d="M50.434,11.3a.214.214,0,0,0,.207-.223.21.21,0,0,0-.207-.207,1.883,1.883,0,0,1-1.907-2.066.207.207,0,1,0-.413,0,1.883,1.883,0,0,1-1.907,2.066h-.016A.207.207,0,0,0,46,11.08a.21.21,0,0,0,.207.207,1.876,1.876,0,0,1,1.907,2.066.21.21,0,0,0,.207.207.183.183,0,0,0,.191-.191A1.883,1.883,0,0,1,50.418,11.3h.016Zm-2.13.906A2.131,2.131,0,0,0,47.16,11.08,2.138,2.138,0,0,0,48.3,9.952a2.131,2.131,0,0,0,1.144,1.128A2.138,2.138,0,0,0,48.3,12.209Z" transform="translate(-44.172 -8.601)"/><path class="a" d="M4.434,191.274a1.883,1.883,0,0,1-1.907-2.066.207.207,0,1,0-.413,0,1.883,1.883,0,0,1-1.907,2.066H.191A.207.207,0,0,0,0,191.48a.21.21,0,0,0,.207.207,1.876,1.876,0,0,1,1.907,2.066.21.21,0,0,0,.207.207c.1.032.191-.064.191-.191A1.883,1.883,0,0,1,4.418,191.7h.016a.214.214,0,0,0,.207-.223A.21.21,0,0,0,4.434,191.274ZM2.3,192.625A2.184,2.184,0,0,0,1.16,191.5,2.138,2.138,0,0,0,2.3,190.368,2.132,2.132,0,0,0,3.449,191.5,2.138,2.138,0,0,0,2.3,192.625Z" transform="translate(0 -181.833)"/></g></g></g></svg>