<svg xmlns="http://www.w3.org/2000/svg" width="13.412" height="13.407" viewBox="0 0 13.412 13.407"><defs><style>.a{fill:#d18e8e;stroke:#d18e8e;stroke-width:0.4px;}</style></defs><g transform="translate(-1296.795 -798.794)"><g transform="translate(1297 799)"><path class="a" d="M18.161,12.559a.187.187,0,0,1-.06-.01,4.89,4.89,0,0,1-3.176-3.176.186.186,0,0,1,.024-.167l2.759-3.936a8.682,8.682,0,0,1,7.607-3.28.186.186,0,0,1,.171.171,8.681,8.681,0,0,1-3.274,7.6l-.007.005-3.936,2.758a.184.184,0,0,1-.106.034ZM15.307,9.341a4.515,4.515,0,0,0,2.826,2.826l3.855-2.7a8.3,8.3,0,0,0,3.138-7.117,8.3,8.3,0,0,0-7.12,3.141Z" transform="translate(-12.512 -1.961)"/><path class="a" d="M54.014,7.963a.19.19,0,0,1-.035,0A4.124,4.124,0,0,1,50.71,4.691a.186.186,0,0,1,.365-.07A3.752,3.752,0,0,0,54.048,7.6a.186.186,0,0,1-.035.368Z" transform="translate(-41.664 -4.005)"/><path class="a" d="M39.31,23.389a1.453,1.453,0,1,1,1.028-.425A1.453,1.453,0,0,1,39.31,23.389Zm0-2.535a1.083,1.083,0,1,0,.765.317A1.083,1.083,0,0,0,39.31,20.854Z" transform="translate(-31.198 -17.047)"/><path class="a" d="M33.062,50.329H33.05a.186.186,0,0,1-.147-.088l-1.46-2.389a.186.186,0,1,1,.317-.193l1.321,2.161,1-1.266a2.693,2.693,0,0,0,.554-2l-.122-.939a.186.186,0,1,1,.368-.048L35,46.5a3.066,3.066,0,0,1-.631,2.282l-1.165,1.475a.186.186,0,0,1-.145.07Z" transform="translate(-25.952 -37.342)"/><path class="a" d="M4.612,26.731a.186.186,0,0,1-.1-.027l-2.388-1.46a.186.186,0,0,1-.019-.3l1.475-1.165a3.067,3.067,0,0,1,2.282-.631l.939.122a.186.186,0,1,1-.048.368l-.939-.122a2.694,2.694,0,0,0-2,.554l-1.267,1,2.161,1.321a.186.186,0,0,1-.1.344Z" transform="translate(-2.024 -19.194)"/><path class="a" d="M14.41,63.135a.186.186,0,0,1-.131-.317l1.657-1.657a.186.186,0,1,1,.262.262l-1.657,1.657A.186.186,0,0,1,14.41,63.135Z" transform="translate(-11.949 -50.134)"/><path class="a" d="M2.148,50.873a.186.186,0,0,1-.131-.317L3.673,48.9a.186.186,0,1,1,.262.262L2.279,50.819a.186.186,0,0,1-.131.054Z" transform="translate(-1.962 -40.147)"/><path class="a" d="M2.754,61.974a.186.186,0,0,1-.131-.317l1.783-1.783a.186.186,0,1,1,.262.262L2.885,61.92a.186.186,0,0,1-.131.054Z" transform="translate(-2.456 -49.086)"/></g></g></svg>