<svg xmlns="http://www.w3.org/2000/svg" width="12.25" height="12.25" viewBox="0 0 12.25 12.25"><defs><style>.a{fill:#d18e8e;stroke:#fff;stroke-width:0.25px;}</style></defs><g transform="translate(0.125 0.125)"><path class="a" d="M10.372.542a.5.5,0,0,0-.5.5v.417A5.908,5.908,0,0,0,5.969,0,5.986,5.986,0,0,0,0,5.99a.5.5,0,0,0,1,0A4.985,4.985,0,0,1,5.969,1,4.918,4.918,0,0,1,9.19,2.19H8.731a.5.5,0,0,0,0,1h1.641a.5.5,0,0,0,.5-.5V1.042A.5.5,0,0,0,10.372.542Z"/><g transform="translate(1.181 5.51)"><path class="a" d="M48.1,176.32a.5.5,0,0,0-.5.5,4.985,4.985,0,0,1-4.969,4.99,4.918,4.918,0,0,1-3.19-1.162h.48a.5.5,0,0,0,0-1H38.263a.486.486,0,0,0-.057.006c-.014,0-.028,0-.042.007a.5.5,0,0,0-.049.015c-.015.005-.03.01-.045.016s-.027.014-.04.022a.533.533,0,0,0-.046.028l-.012.007c-.008.007-.015.014-.023.021a.392.392,0,0,0-.069.073c-.01.013-.019.025-.028.039s-.016.029-.023.043a.46.46,0,0,0-.02.044c-.006.016-.01.031-.014.047s-.008.031-.011.046,0,.035-.006.053,0,.02,0,.031V181.8a.5.5,0,0,0,1,0v-.4a5.91,5.91,0,0,0,3.851,1.412,5.986,5.986,0,0,0,5.969-5.99A.5.5,0,0,0,48.1,176.32Z" transform="translate(-37.776 -176.32)"/></g></g></svg>