<svg xmlns="http://www.w3.org/2000/svg" width="10.013" height="11.868" viewBox="0 0 10.013 11.868"><defs><style>.a{fill:#d18e8e;}</style></defs><g transform="translate(-40 0)"><path class="a" d="M49.728,1.922,45.185.036a.464.464,0,0,0-.356,0L40.286,1.922A.464.464,0,0,0,40,2.35V4.643a7.764,7.764,0,0,0,4.832,7.191.464.464,0,0,0,.35,0,7.764,7.764,0,0,0,4.832-7.191V2.35A.464.464,0,0,0,49.728,1.922Zm-.641,2.721a6.838,6.838,0,0,1-4.08,6.258,6.838,6.838,0,0,1-4.08-6.258V2.659L45.007.966l4.08,1.694ZM44.494,6.206l1.993-1.993a.464.464,0,1,1,.656.656l-2.32,2.32a.464.464,0,0,1-.656,0l-1.3-1.3a.464.464,0,1,1,.656-.656Z" transform="translate(0 0)"/></g></svg>